<svg xmlns="http://www.w3.org/2000/svg" xmlns:xlink="http://www.w3.org/1999/xlink" contentStyleType="text/css" data-diagram-type="YAML" height="1068px" preserveAspectRatio="none" style="width:876px;height:1068px;background:#FFFFFF;" version="1.1" viewBox="0 0 876 1068" width="876px" zoomAndPan="magnify"><defs/><g><rect fill="#F1F1F1" height="46.1358" rx="5" ry="5" style="stroke:#F1F1F1;stroke-width:1.5;" width="100.7587" x="10" y="258.0679"/><text fill="#000000" font-family="sans-serif" font-size="14" font-weight="bold" lengthAdjust="spacing" textLength="44.5968" x="15" y="275.0339">spring</text><text fill="#000000" font-family="sans-serif" font-size="14" lengthAdjust="spacing" textLength="10.92" x="94.8387" y="275.0339">&#160;&#160;&#160;</text><line style="stroke:#000000;stroke-width:1;" x1="89.8387" x2="89.8387" y1="258.0679" y2="281.1358"/><line style="stroke:#000000;stroke-width:1;" x1="10" x2="110.7587" y1="281.1358" y2="281.1358"/><text fill="#000000" font-family="sans-serif" font-size="14" font-weight="bold" lengthAdjust="spacing" textLength="69.8387" x="15" y="298.1018">api-config</text><text fill="#000000" font-family="sans-serif" font-size="14" lengthAdjust="spacing" textLength="10.92" x="94.8387" y="298.1018">&#160;&#160;&#160;</text><line style="stroke:#000000;stroke-width:1;" x1="89.8387" x2="89.8387" y1="281.1358" y2="304.2038"/><rect fill="none" height="46.1358" rx="5" ry="5" style="stroke:#000000;stroke-width:1.5;" width="100.7587" x="10" y="258.0679"/><rect fill="#F1F1F1" height="69.2038" rx="5" ry="5" style="stroke:#F1F1F1;stroke-width:1.5;" width="108.8927" x="209.5" y="106.534"/><text fill="#000000" font-family="sans-serif" font-size="14" font-weight="bold" lengthAdjust="spacing" textLength="77.9727" x="214.5" y="123.4999">datasource</text><text fill="#000000" font-family="sans-serif" font-size="14" lengthAdjust="spacing" textLength="10.92" x="302.4727" y="123.4999">&#160;&#160;&#160;</text><line style="stroke:#000000;stroke-width:1;" x1="297.4727" x2="297.4727" y1="106.534" y2="129.6019"/><line style="stroke:#000000;stroke-width:1;" x1="209.5" x2="318.3927" y1="129.6019" y2="129.6019"/><text fill="#000000" font-family="sans-serif" font-size="14" font-weight="bold" lengthAdjust="spacing" textLength="77.4722" x="214.5" y="146.5678">application</text><text fill="#000000" font-family="sans-serif" font-size="14" lengthAdjust="spacing" textLength="10.92" x="302.4727" y="146.5678">&#160;&#160;&#160;</text><line style="stroke:#000000;stroke-width:1;" x1="297.4727" x2="297.4727" y1="129.6019" y2="152.6698"/><line style="stroke:#000000;stroke-width:1;" x1="209.5" x2="318.3927" y1="152.6698" y2="152.6698"/><text fill="#000000" font-family="sans-serif" font-size="14" font-weight="bold" lengthAdjust="spacing" textLength="21.3884" x="214.5" y="169.6357">jpa</text><text fill="#000000" font-family="sans-serif" font-size="14" lengthAdjust="spacing" textLength="10.92" x="302.4727" y="169.6357">&#160;&#160;&#160;</text><line style="stroke:#000000;stroke-width:1;" x1="297.4727" x2="297.4727" y1="152.6698" y2="175.7377"/><rect fill="none" height="69.2038" rx="5" ry="5" style="stroke:#000000;stroke-width:1.5;" width="108.8927" x="209.5" y="106.534"/><rect fill="#F1F1F1" height="92.2717" rx="5" ry="5" style="stroke:#F1F1F1;stroke-width:1.5;" width="285.1625" x="417" y="10"/><text fill="#000000" font-family="sans-serif" font-size="14" font-weight="bold" lengthAdjust="spacing" textLength="19.3584" x="422" y="26.9659">url</text><text fill="#000000" font-family="sans-serif" font-size="14" lengthAdjust="spacing" textLength="70.4617" x="556.3371" y="26.9659">${DB_URL}</text><line style="stroke:#000000;stroke-width:1;" x1="551.3371" x2="551.3371" y1="10" y2="33.0679"/><line style="stroke:#000000;stroke-width:1;" x1="417" x2="702.1625" y1="33.0679" y2="33.0679"/><text fill="#000000" font-family="sans-serif" font-size="14" font-weight="bold" lengthAdjust="spacing" textLength="70.0277" x="422" y="50.0339">username</text><text fill="#000000" font-family="sans-serif" font-size="14" lengthAdjust="spacing" textLength="78.5957" x="556.3371" y="50.0339">${DB_USER}</text><line style="stroke:#000000;stroke-width:1;" x1="551.3371" x2="551.3371" y1="33.0679" y2="56.1358"/><line style="stroke:#000000;stroke-width:1;" x1="417" x2="702.1625" y1="56.1358" y2="56.1358"/><text fill="#000000" font-family="sans-serif" font-size="14" font-weight="bold" lengthAdjust="spacing" textLength="67.2418" x="422" y="73.1018">password</text><text fill="#000000" font-family="sans-serif" font-size="14" lengthAdjust="spacing" textLength="119.8535" x="556.3371" y="73.1018">${DB_PASSWORD}</text><line style="stroke:#000000;stroke-width:1;" x1="551.3371" x2="551.3371" y1="56.1358" y2="79.2038"/><line style="stroke:#000000;stroke-width:1;" x1="417" x2="702.1625" y1="79.2038" y2="79.2038"/><text fill="#000000" font-family="sans-serif" font-size="14" font-weight="bold" lengthAdjust="spacing" textLength="124.3371" x="422" y="96.1697">driver-class-name</text><text fill="#000000" font-family="sans-serif" font-size="14" lengthAdjust="spacing" textLength="140.8255" x="556.3371" y="96.1697">org.postgresql.Driver</text><line style="stroke:#000000;stroke-width:1;" x1="551.3371" x2="551.3371" y1="79.2038" y2="102.2717"/><rect fill="none" height="92.2717" rx="5" ry="5" style="stroke:#000000;stroke-width:1.5;" width="285.1625" x="417" y="10"/><rect fill="#F1F1F1" height="23.0679" rx="5" ry="5" style="stroke:#F1F1F1;stroke-width:1.5;" width="150.7175" x="484" y="120.6019"/><text fill="#000000" font-family="sans-serif" font-size="14" font-weight="bold" lengthAdjust="spacing" textLength="39.2419" x="489" y="137.5678">name</text><text fill="#000000" font-family="sans-serif" font-size="14" lengthAdjust="spacing" textLength="91.4756" x="538.2419" y="137.5678">kawaii-keeper</text><line style="stroke:#000000;stroke-width:1;" x1="533.2419" x2="533.2419" y1="120.6019" y2="143.6698"/><rect fill="none" height="23.0679" rx="5" ry="5" style="stroke:#000000;stroke-width:1.5;" width="150.7175" x="484" y="120.6019"/><rect fill="#F1F1F1" height="23.0679" rx="5" ry="5" style="stroke:#F1F1F1;stroke-width:1.5;" width="98.8652" x="510" y="161.6019"/><text fill="#000000" font-family="sans-serif" font-size="14" font-weight="bold" lengthAdjust="spacing" textLength="67.9453" x="515" y="178.5678">hibernate</text><text fill="#000000" font-family="sans-serif" font-size="14" lengthAdjust="spacing" textLength="10.92" x="592.9453" y="178.5678">&#160;&#160;&#160;</text><line style="stroke:#000000;stroke-width:1;" x1="587.9453" x2="587.9453" y1="161.6019" y2="184.6698"/><rect fill="none" height="23.0679" rx="5" ry="5" style="stroke:#000000;stroke-width:1.5;" width="98.8652" x="510" y="161.6019"/><rect fill="#F1F1F1" height="23.0679" rx="5" ry="5" style="stroke:#F1F1F1;stroke-width:1.5;" width="125.5456" x="739" y="161.6019"/><text fill="#000000" font-family="sans-serif" font-size="14" font-weight="bold" lengthAdjust="spacing" textLength="58.8698" x="744" y="178.5678">ddl-auto</text><text fill="#000000" font-family="sans-serif" font-size="14" lengthAdjust="spacing" textLength="46.6758" x="812.8698" y="178.5678">update</text><line style="stroke:#000000;stroke-width:1;" x1="807.8698" x2="807.8698" y1="161.6019" y2="184.6698"/><rect fill="none" height="23.0679" rx="5" ry="5" style="stroke:#000000;stroke-width:1.5;" width="125.5456" x="739" y="161.6019"/><rect fill="#F1F1F1" height="69.2038" rx="5" ry="5" style="stroke:#F1F1F1;stroke-width:1.5;" width="232.3442" x="148" y="387.534"/><text fill="#000000" font-family="sans-serif" font-size="14" font-weight="bold" lengthAdjust="spacing" textLength="68.1273" x="153" y="404.4999">bot-token</text><text fill="#000000" font-family="sans-serif" font-size="14" lengthAdjust="spacing" textLength="98.4896" x="262.3087" y="404.4999">${BOT_TOKEN}</text><line style="stroke:#000000;stroke-width:1;" x1="257.3087" x2="257.3087" y1="387.534" y2="410.6019"/><line style="stroke:#000000;stroke-width:1;" x1="148" x2="380.3442" y1="410.6019" y2="410.6019"/><text fill="#000000" font-family="sans-serif" font-size="14" font-weight="bold" lengthAdjust="spacing" textLength="83.4537" x="153" y="427.5678">api-base-url</text><text fill="#000000" font-family="sans-serif" font-size="14" lengthAdjust="spacing" textLength="113.0356" x="262.3087" y="427.5678">${API_BASE_URL}</text><line style="stroke:#000000;stroke-width:1;" x1="257.3087" x2="257.3087" y1="410.6019" y2="433.6698"/><line style="stroke:#000000;stroke-width:1;" x1="148" x2="380.3442" y1="433.6698" y2="433.6698"/><text fill="#000000" font-family="sans-serif" font-size="14" font-weight="bold" lengthAdjust="spacing" textLength="99.3087" x="153" y="450.6357">api-categories</text><text fill="#000000" font-family="sans-serif" font-size="14" lengthAdjust="spacing" textLength="10.92" x="262.3087" y="450.6357">&#160;&#160;&#160;</text><line style="stroke:#000000;stroke-width:1;" x1="257.3087" x2="257.3087" y1="433.6698" y2="456.7377"/><rect fill="none" height="69.2038" rx="5" ry="5" style="stroke:#000000;stroke-width:1.5;" width="232.3442" x="148" y="387.534"/><rect fill="#F1F1F1" height="853.5129" rx="5" ry="5" style="stroke:#F1F1F1;stroke-width:1.5;" width="160.1214" x="479.5" y="203.1358"/><text fill="#000000" font-family="sans-serif" font-size="14" lengthAdjust="spacing" textLength="52.4578" x="484.5" y="220.1018">random</text><line style="stroke:#000000;stroke-width:1;" x1="479.5" x2="639.6214" y1="226.2038" y2="226.2038"/><text fill="#000000" font-family="sans-serif" font-size="14" lengthAdjust="spacing" textLength="41.2439" x="484.5" y="243.1697">catgirl</text><line style="stroke:#000000;stroke-width:1;" x1="479.5" x2="639.6214" y1="249.2717" y2="249.2717"/><text fill="#000000" font-family="sans-serif" font-size="14" lengthAdjust="spacing" textLength="42.3078" x="484.5" y="266.2376">foxgirl</text><line style="stroke:#000000;stroke-width:1;" x1="479.5" x2="639.6214" y1="272.3396" y2="272.3396"/><text fill="#000000" font-family="sans-serif" font-size="14" lengthAdjust="spacing" textLength="54.0258" x="484.5" y="289.3055">wolf-girl</text><line style="stroke:#000000;stroke-width:1;" x1="479.5" x2="639.6214" y1="295.4075" y2="295.4075"/><text fill="#000000" font-family="sans-serif" font-size="14" lengthAdjust="spacing" textLength="77.4197" x="484.5" y="312.3734">animal-ears</text><line style="stroke:#000000;stroke-width:1;" x1="479.5" x2="639.6214" y1="318.4754" y2="318.4754"/><text fill="#000000" font-family="sans-serif" font-size="14" lengthAdjust="spacing" textLength="20.1319" x="484.5" y="335.4414">tail</text><line style="stroke:#000000;stroke-width:1;" x1="479.5" x2="639.6214" y1="341.5433" y2="341.5433"/><text fill="#000000" font-family="sans-serif" font-size="14" lengthAdjust="spacing" textLength="101.2056" x="484.5" y="358.5093">tail-with-ribbon</text><line style="stroke:#000000;stroke-width:1;" x1="479.5" x2="639.6214" y1="364.6113" y2="364.6113"/><text fill="#000000" font-family="sans-serif" font-size="14" lengthAdjust="spacing" textLength="134.0355" x="484.5" y="381.5772">tail-from-under-skirt</text><line style="stroke:#000000;stroke-width:1;" x1="479.5" x2="639.6214" y1="387.6792" y2="387.6792"/><text fill="#000000" font-family="sans-serif" font-size="14" lengthAdjust="spacing" textLength="28.3219" x="484.5" y="404.6451">cute</text><line style="stroke:#000000;stroke-width:1;" x1="479.5" x2="639.6214" y1="410.7471" y2="410.7471"/><text fill="#000000" font-family="sans-serif" font-size="14" lengthAdjust="spacing" textLength="119.8675" x="484.5" y="427.713">cuteness-is-justice</text><line style="stroke:#000000;stroke-width:1;" x1="479.5" x2="639.6214" y1="433.815" y2="433.815"/><text fill="#000000" font-family="sans-serif" font-size="14" lengthAdjust="spacing" textLength="80.9057" x="484.5" y="450.7809">blue-archive</text><line style="stroke:#000000;stroke-width:1;" x1="479.5" x2="639.6214" y1="456.8829" y2="456.8829"/><text fill="#000000" font-family="sans-serif" font-size="14" lengthAdjust="spacing" textLength="21.6159" x="484.5" y="473.8489">girl</text><line style="stroke:#000000;stroke-width:1;" x1="479.5" x2="639.6214" y1="479.9508" y2="479.9508"/><text fill="#000000" font-family="sans-serif" font-size="14" lengthAdjust="spacing" textLength="67.6477" x="484.5" y="496.9168">young-girl</text><line style="stroke:#000000;stroke-width:1;" x1="479.5" x2="639.6214" y1="503.0188" y2="503.0188"/><text fill="#000000" font-family="sans-serif" font-size="14" lengthAdjust="spacing" textLength="33.1659" x="484.5" y="519.9847">maid</text><line style="stroke:#000000;stroke-width:1;" x1="479.5" x2="639.6214" y1="526.0867" y2="526.0867"/><text fill="#000000" font-family="sans-serif" font-size="14" lengthAdjust="spacing" textLength="90.7477" x="484.5" y="543.0526">maid-uniform</text><line style="stroke:#000000;stroke-width:1;" x1="479.5" x2="639.6214" y1="549.1546" y2="549.1546"/><text fill="#000000" font-family="sans-serif" font-size="14" lengthAdjust="spacing" textLength="43.1058" x="484.5" y="566.1205">vtuber</text><line style="stroke:#000000;stroke-width:1;" x1="479.5" x2="639.6214" y1="572.2225" y2="572.2225"/><text fill="#000000" font-family="sans-serif" font-size="14" lengthAdjust="spacing" textLength="56.8118" x="484.5" y="589.1884">w-sitting</text><line style="stroke:#000000;stroke-width:1;" x1="479.5" x2="639.6214" y1="595.2904" y2="595.2904"/><text fill="#000000" font-family="sans-serif" font-size="14" lengthAdjust="spacing" textLength="72.8697" x="484.5" y="612.2564">lying-down</text><line style="stroke:#000000;stroke-width:1;" x1="479.5" x2="639.6214" y1="618.3583" y2="618.3583"/><text fill="#000000" font-family="sans-serif" font-size="14" lengthAdjust="spacing" textLength="150.1214" x="484.5" y="635.3243">hands-forming-a-heart</text><line style="stroke:#000000;stroke-width:1;" x1="479.5" x2="639.6214" y1="641.4263" y2="641.4263"/><text fill="#000000" font-family="sans-serif" font-size="14" lengthAdjust="spacing" textLength="30.7439" x="484.5" y="658.3922">wink</text><line style="stroke:#000000;stroke-width:1;" x1="479.5" x2="639.6214" y1="664.4942" y2="664.4942"/><text fill="#000000" font-family="sans-serif" font-size="14" lengthAdjust="spacing" textLength="60.3398" x="484.5" y="681.4601">valentine</text><line style="stroke:#000000;stroke-width:1;" x1="479.5" x2="639.6214" y1="687.5621" y2="687.5621"/><text fill="#000000" font-family="sans-serif" font-size="14" lengthAdjust="spacing" textLength="81.9977" x="484.5" y="704.528">headphones</text><line style="stroke:#000000;stroke-width:1;" x1="479.5" x2="639.6214" y1="710.63" y2="710.63"/><text fill="#000000" font-family="sans-serif" font-size="14" lengthAdjust="spacing" textLength="109.1996" x="484.5" y="727.5959">thigh-high-socks</text><line style="stroke:#000000;stroke-width:1;" x1="479.5" x2="639.6214" y1="733.6979" y2="733.6979"/><text fill="#000000" font-family="sans-serif" font-size="14" lengthAdjust="spacing" textLength="106.5396" x="484.5" y="750.6639">knee-high-socks</text><line style="stroke:#000000;stroke-width:1;" x1="479.5" x2="639.6214" y1="756.7658" y2="756.7658"/><text fill="#000000" font-family="sans-serif" font-size="14" lengthAdjust="spacing" textLength="78.4137" x="484.5" y="773.7318">white-tights</text><line style="stroke:#000000;stroke-width:1;" x1="479.5" x2="639.6214" y1="779.8338" y2="779.8338"/><text fill="#000000" font-family="sans-serif" font-size="14" lengthAdjust="spacing" textLength="76.4677" x="484.5" y="796.7997">black-tights</text><line style="stroke:#000000;stroke-width:1;" x1="479.5" x2="639.6214" y1="802.9017" y2="802.9017"/><text fill="#000000" font-family="sans-serif" font-size="14" lengthAdjust="spacing" textLength="97.9296" x="484.5" y="819.8676">heterochromia</text><line style="stroke:#000000;stroke-width:1;" x1="479.5" x2="639.6214" y1="825.9696" y2="825.9696"/><text fill="#000000" font-family="sans-serif" font-size="14" lengthAdjust="spacing" textLength="53.0738" x="484.5" y="842.9355">uniform</text><line style="stroke:#000000;stroke-width:1;" x1="479.5" x2="639.6214" y1="849.0375" y2="849.0375"/><text fill="#000000" font-family="sans-serif" font-size="14" lengthAdjust="spacing" textLength="93.6176" x="484.5" y="866.0034">sailor-uniform</text><line style="stroke:#000000;stroke-width:1;" x1="479.5" x2="639.6214" y1="872.1054" y2="872.1054"/><text fill="#000000" font-family="sans-serif" font-size="14" lengthAdjust="spacing" textLength="45.7098" x="484.5" y="889.0714">hoodie</text><line style="stroke:#000000;stroke-width:1;" x1="479.5" x2="639.6214" y1="895.1733" y2="895.1733"/><text fill="#000000" font-family="sans-serif" font-size="14" lengthAdjust="spacing" textLength="43.7358" x="484.5" y="912.1393">ribbon</text><line style="stroke:#000000;stroke-width:1;" x1="479.5" x2="639.6214" y1="918.2413" y2="918.2413"/><text fill="#000000" font-family="sans-serif" font-size="14" lengthAdjust="spacing" textLength="66.6257" x="484.5" y="935.2072">white-hair</text><line style="stroke:#000000;stroke-width:1;" x1="479.5" x2="639.6214" y1="941.3092" y2="941.3092"/><text fill="#000000" font-family="sans-serif" font-size="14" lengthAdjust="spacing" textLength="59.1778" x="484.5" y="958.2751">blue-hair</text><line style="stroke:#000000;stroke-width:1;" x1="479.5" x2="639.6214" y1="964.3771" y2="964.3771"/><text fill="#000000" font-family="sans-serif" font-size="14" lengthAdjust="spacing" textLength="59.7518" x="484.5" y="981.343">long-hair</text><line style="stroke:#000000;stroke-width:1;" x1="479.5" x2="639.6214" y1="987.445" y2="987.445"/><text fill="#000000" font-family="sans-serif" font-size="14" lengthAdjust="spacing" textLength="45.8498" x="484.5" y="1004.4109">blonde</text><line style="stroke:#000000;stroke-width:1;" x1="479.5" x2="639.6214" y1="1010.5129" y2="1010.5129"/><text fill="#000000" font-family="sans-serif" font-size="14" lengthAdjust="spacing" textLength="62.9157" x="484.5" y="1027.4789">blue-eyes</text><line style="stroke:#000000;stroke-width:1;" x1="479.5" x2="639.6214" y1="1033.5808" y2="1033.5808"/><text fill="#000000" font-family="sans-serif" font-size="14" lengthAdjust="spacing" textLength="77.3077" x="484.5" y="1050.5468">purple-eyes</text><rect fill="none" height="853.5129" rx="5" ry="5" style="stroke:#000000;stroke-width:1.5;" width="160.1214" x="479.5" y="203.1358"/><path d="M306.5,118.1358 L319.5,118.1358 C353.2413,118.1358 388.8277,112.2974 421.9494,104.2037" fill="none" style="stroke:#000000;stroke-width:1;stroke-dasharray:3,3;"/><path d="M422.6988,107.1921 L424.1907,103.6417 L421.2,101.2154 L429.4203,102.3302 L422.6988,107.1921" fill="#000000"/><ellipse cx="306.5" cy="118.1358" fill="#000000" rx="3" ry="3" style="stroke:#000000;stroke-width:1;"/><path d="M306.5,141.1358 L319.5,141.1358 C371.8234,141.1358 430.5314,138.9643 476.7268,136.7545" fill="none" style="stroke:#000000;stroke-width:1;stroke-dasharray:3,3;"/><path d="M476.8744,139.7927 L479.0054,136.6438 L476.5791,133.7163 L484.3223,136.3855 L476.8744,139.7927" fill="#000000"/><ellipse cx="306.5" cy="141.1358" fill="#000000" rx="3" ry="3" style="stroke:#000000;stroke-width:1;"/><path d="M597,173.1358 L610,173.1358 C650.3504,173.1358 695.4832,173.1358 731.7946,173.1358" fill="none" style="stroke:#000000;stroke-width:1;stroke-dasharray:3,3;"/><path d="M731.7946,176.1797 L734.0775,173.1358 L731.7946,170.092 L739.4043,173.1358 L731.7946,176.1797" fill="#000000"/><ellipse cx="597" cy="173.1358" fill="#000000" rx="3" ry="3" style="stroke:#000000;stroke-width:1;"/><path d="M306.5,164.1358 L319.5,164.1358 C382.299,164.1358 454.2951,167.264 502.8167,169.8319" fill="none" style="stroke:#000000;stroke-width:1;stroke-dasharray:3,3;"/><path d="M502.654,172.8642 L505.091,169.9539 L502.9794,166.7995 L510.3976,170.2386 L502.654,172.8642" fill="#000000"/><ellipse cx="306.5" cy="164.1358" fill="#000000" rx="3" ry="3" style="stroke:#000000;stroke-width:1;"/><path d="M99,269.1358 L112,269.1358 C166.8465,269.1358 212.0933,219.5816 238.4529,182.1392" fill="none" style="stroke:#000000;stroke-width:1;stroke-dasharray:3,3;"/><path d="M240.9988,183.8926 L239.7679,180.2298 L235.907,180.3858 L242.8363,175.7745 L240.9988,183.8926" fill="#000000"/><ellipse cx="99" cy="269.1358" fill="#000000" rx="3" ry="3" style="stroke:#000000;stroke-width:1;"/><path d="M367.5,445.1358 L380.5,445.1358 C416.9588,445.1358 448.3253,463.9734 474.137,489.6263" fill="none" style="stroke:#000000;stroke-width:1;stroke-dasharray:3,3;"/><path d="M471.9077,491.7957 L475.764,491.2983 L476.3663,487.4569 L479.5605,495.1995 L471.9077,491.7957" fill="#000000"/><ellipse cx="367.5" cy="445.1358" fill="#000000" rx="3" ry="3" style="stroke:#000000;stroke-width:1;"/><path d="M99,293.1358 L112,293.1358 C167.0254,293.1358 212.2284,343.0772 238.5295,380.8121" fill="none" style="stroke:#000000;stroke-width:1;stroke-dasharray:3,3;"/><path d="M235.9637,382.5614 L239.8415,382.7365 L241.0953,379.0629 L242.9026,387.2266 L235.9637,382.5614" fill="#000000"/><ellipse cx="99" cy="293.1358" fill="#000000" rx="3" ry="3" style="stroke:#000000;stroke-width:1;"/><!--SRC=[PLHDSzem4BtxL-ZGGt8Gap2aat8A5DefWSBW93rcrhQmDvObLn-uJ2R_lUklnBGNHljsjVlUavSxwy2u4nGo26nfKANJWB4475ZjJIpgY35lv9HzUbtCdn_twxSMii8eA4IFXyjzcoZ1sagRf4liPc7uQxjVjCd4u54O7aigukrrRT9HgQrBZR2_vMZHL50nbAN461ngrP9eotEe097dGfHDsKi9RJh3g6RaEieqAv4SlDDJvaiI9880IkInLWTiH4RQSQTpeMgcy-t3yyFsVldphHcDF08hUATxjllnF9-5orvzquSwfjgWiEqypWoeH1TTGEaKZUoYW_upY2ej3tmGWy8291TWR8SuG3auyWfTnWr6aLP3-61qmRrAo56Ret7zR4zYFuvAaDTe-Okt3kC-4qalE9Wu8xixQ43ffBrAXnmBm6HmfAbuqAPNUtG-QbwZaSSjEaTVKXVB4vrvegkUUqP6MLvVhnF0CrBUSwzGvNrJa49HdvuUbILbfabExq66QSQR7wlZl8Tp9SJ_Q9MX4zmHxEox1H3dvr0cd30wpiXOX0uxbsh9U6t-qPzfdM3Fy-oTsh4Pe1dwFeYb9W_EyfeUT5WiJk-AIszAsI71dL19kxWx2SezRjQCDiVIlh3hqVXgV3EQN8JWsCehDhvbrvFfrPVf-8PjmdjMfo-3Y- -xDMltd2Le7J7tzRvT1Yiu0jjxih_UkMqfr6fntmDigOvej2heUOBLq-QZuFE4pz6nK1XYmfusmK8Sm4j7Ds9oYFvSsEF3DtuRh46b7bBgBLJmbJusPqwK2_y2]--></g></svg>