<svg xmlns="http://www.w3.org/2000/svg" xmlns:xlink="http://www.w3.org/1999/xlink" contentStyleType="text/css" data-diagram-type="CLASS" height="280px" preserveAspectRatio="none" style="width:617px;height:280px;background:#FFFFFF;" version="1.1" viewBox="0 0 617 280" width="617px" zoomAndPan="magnify"><defs/><g><!--class Category--><g class="entity" data-entity="Category" data-source-line="8" data-uid="ent0002" id="entity_Category"><rect fill="#F1F1F1" height="113.2038" rx="2.5" ry="2.5" style="stroke:#181818;stroke-width:0.5;" width="284.3523" x="7" y="83.67"/><ellipse cx="110.0993" cy="103.204" fill="#FFFFFF" rx="11" ry="11" style="stroke:#181818;stroke-width:1;"/><path d="M111.1149,110.454 L109.068,110.454 L109.068,99.6571 L105.2712,99.6571 L105.2712,97.7821 L114.8962,97.7821 L114.8962,99.6571 L111.1149,99.6571 L111.1149,110.454 Z " fill="#000000"/><text fill="#000000" font-family="sans-serif" font-size="14" lengthAdjust="spacing" textLength="59.6538" x="135.5993" y="108.6359">Category</text><line style="stroke:#181818;stroke-width:0.5;" x1="8" x2="290.3523" y1="122.7379" y2="122.7379"/><path d="M25.4167,137.9725 C23.8067,137.9725 22.5,139.2792 22.5,140.8892 C22.5,141.0758 22.5,141.2625 22.535,141.4375 L19,144.9725 L19,147.3058 L22.5,147.3058 L22.5,144.9725 L24.8333,144.9725 L24.8333,143.8058 L24.8683,143.7708 C25.0433,143.8058 25.23,143.8058 25.4167,143.8058 C27.0267,143.8058 28.3333,142.4992 28.3333,140.8892 C28.3333,139.2792 27.0267,137.9725 25.4167,137.9725 M26,139.1392 C26.6417,139.1392 27.1667,139.6642 27.1667,140.3058 C27.1667,140.9475 26.6417,141.4725 26,141.4725 C25.3583,141.4725 24.8333,140.9475 24.8333,140.3058 C24.8333,139.6642 25.3583,139.1392 26,139.1392" fill="#B8861B"/><text fill="#000000" font-family="sans-serif" font-size="14" font-weight="bold" lengthAdjust="spacing" textLength="50.5363" x="32.9733" y="146.7039">user_id</text><text fill="#000000" font-family="sans-serif" font-size="14" lengthAdjust="spacing" textLength="161.8114" x="87.1496" y="146.7039">: BIGINT NOT NULL &#171;PK&#187;</text><line style="stroke:#181818;stroke-width:1;" x1="8" x2="290.3523" y1="159.8058" y2="159.8058"/><path d="M23.6667,176.2071 C21.73,176.2071 20.1667,177.7704 20.1667,179.7071 C20.1667,181.6438 21.73,183.2071 23.6667,183.2071 C25.6033,183.2071 27.1667,181.6438 27.1667,179.7071 C27.1667,177.7704 25.6033,176.2071 23.6667,176.2071" fill="#EFEFEF"/><text fill="#000000" font-family="sans-serif" font-size="14" lengthAdjust="spacing" textLength="247.379" x="32.9733" y="183.7718">category_name : VARCHAR NOT NULL</text></g><!--class Saved--><g class="entity" data-entity="Saved" data-source-line="14" data-uid="ent0003" id="entity_Saved"><rect fill="#F1F1F1" height="266.5433" rx="2.5" ry="2.5" style="stroke:#181818;stroke-width:0.5;" width="284.3523" x="326" y="7"/><ellipse cx="439.3472" cy="26.534" fill="#FFFFFF" rx="11" ry="11" style="stroke:#181818;stroke-width:1;"/><path d="M440.3629,33.784 L438.316,33.784 L438.316,22.9871 L434.5191,22.9871 L434.5191,21.1121 L444.1441,21.1121 L444.1441,22.9871 L440.3629,22.9871 L440.3629,33.784 Z " fill="#000000"/><text fill="#000000" font-family="sans-serif" font-size="14" lengthAdjust="spacing" textLength="39.1579" x="464.8472" y="31.9659">Saved</text><line style="stroke:#181818;stroke-width:0.5;" x1="327" x2="609.3523" y1="46.0679" y2="46.0679"/><path d="M344.4167,61.3025 C342.8067,61.3025 341.5,62.6092 341.5,64.2192 C341.5,64.4058 341.5,64.5925 341.535,64.7675 L338,68.3025 L338,70.6358 L341.5,70.6358 L341.5,68.3025 L343.8333,68.3025 L343.8333,67.1358 L343.8683,67.1008 C344.0433,67.1358 344.23,67.1358 344.4167,67.1358 C346.0267,67.1358 347.3333,65.8292 347.3333,64.2192 C347.3333,62.6092 346.0267,61.3025 344.4167,61.3025 M345,62.4692 C345.6417,62.4692 346.1667,62.9942 346.1667,63.6358 C346.1667,64.2775 345.6417,64.8025 345,64.8025 C344.3583,64.8025 343.8333,64.2775 343.8333,63.6358 C343.8333,62.9942 344.3583,62.4692 345,62.4692" fill="#B8861B"/><text fill="#000000" font-family="sans-serif" font-size="14" font-weight="bold" lengthAdjust="spacing" textLength="13.097" x="351.9733" y="70.0339">id</text><text fill="#000000" font-family="sans-serif" font-size="14" lengthAdjust="spacing" textLength="161.8114" x="368.7103" y="70.0339">: BIGINT NOT NULL &#171;PK&#187;</text><line style="stroke:#181818;stroke-width:1;" x1="327" x2="609.3523" y1="83.1358" y2="83.1358"/><path d="M342.6667,99.5371 C340.73,99.5371 339.1667,101.1004 339.1667,103.0371 C339.1667,104.9738 340.73,106.5371 342.6667,106.5371 C344.6033,106.5371 346.1667,104.9738 346.1667,103.0371 C346.1667,101.1004 344.6033,99.5371 342.6667,99.5371" fill="#EFEFEF"/><text fill="#000000" font-family="sans-serif" font-size="14" lengthAdjust="spacing" textLength="177.8973" x="351.9733" y="107.1018">user_id : BIGINT NOT NULL</text><path d="M342.6667,128.605 C340.73,128.605 339.1667,130.1683 339.1667,132.105 C339.1667,134.0417 340.73,135.605 342.6667,135.605 C344.6033,135.605 346.1667,134.0417 346.1667,132.105 C346.1667,130.1683 344.6033,128.605 342.6667,128.605" fill="#EFEFEF"/><text fill="#000000" font-family="sans-serif" font-size="14" lengthAdjust="spacing" textLength="218.7351" x="351.9733" y="136.1697">external_id : VARCHAR NOT NULL</text><path d="M342.6667,157.6729 C340.73,157.6729 339.1667,159.2363 339.1667,161.1729 C339.1667,163.1096 340.73,164.6729 342.6667,164.6729 C344.6033,164.6729 346.1667,163.1096 346.1667,161.1729 C346.1667,159.2363 344.6033,157.6729 342.6667,157.6729" fill="#EFEFEF"/><text fill="#000000" font-family="sans-serif" font-size="14" lengthAdjust="spacing" textLength="211.4691" x="351.9733" y="165.2376">image_url : VARCHAR NOT NULL</text><path d="M342.6667,186.7408 C340.73,186.7408 339.1667,188.3042 339.1667,190.2408 C339.1667,192.1775 340.73,193.7408 342.6667,193.7408 C344.6033,193.7408 346.1667,192.1775 346.1667,190.2408 C346.1667,188.3042 344.6033,186.7408 342.6667,186.7408" fill="#EFEFEF"/><text fill="#000000" font-family="sans-serif" font-size="14" lengthAdjust="spacing" textLength="247.379" x="351.9733" y="194.3055">category_name : VARCHAR NOT NULL</text><path d="M342.6667,215.8088 C340.73,215.8088 339.1667,217.3721 339.1667,219.3088 C339.1667,221.2454 340.73,222.8088 342.6667,222.8088 C344.6033,222.8088 346.1667,221.2454 346.1667,219.3088 C346.1667,217.3721 344.6033,215.8088 342.6667,215.8088" fill="#EFEFEF"/><text fill="#000000" font-family="sans-serif" font-size="14" lengthAdjust="spacing" textLength="230.7471" x="351.9733" y="223.3734">created_at : TIMESTAMP NOT NULL</text><line style="stroke:#181818;stroke-width:1;stroke-dasharray:1,2;" x1="327" x2="609.3523" y1="236.4754" y2="236.4754"/><text fill="#000000" font-family="sans-serif" font-size="14" lengthAdjust="spacing" textLength="196.3072" x="337" y="260.4414">UNIQUE {user_id, external_id}</text></g><!--SRC=[bP1TQuCm58Rl_HLd34Q5Vh2BZL94SALiijPrhUvMeZcwK8sInaqf_U-BpecZ7MKH2OdFSyvxtEyOpuaWAUI4KiPZkDEkA4QC8-I2fKHK_WwhGQc34PX6c2MPc5q7q-dzhJhUg4-cCMbkJIYDIM1sTfG9P37lx5ObpJfHEqrT52dl6nZLZp9If8oC18QPeETKIO84QnEvPBA24Wm31kuGFj-PH1rCKzE-cJcH66UYqk6WWLhzIOiz2fzH7MRmO3_QZWlEYtgzvLALMp-h8hKn6ZLRcpPiw_cSf5YRRzPc_cHjEbKx_hJUaW-av_h-i-NVCViKbX859qbBdiJgeIf9Z7uXaalWvM7xi425Kv_8cdJjrMBhMglrRtOyRZRFiL-z1HpQqORGItzKV_0B]--></g></svg>