<svg xmlns="http://www.w3.org/2000/svg" xmlns:xlink="http://www.w3.org/1999/xlink" contentStyleType="text/css" data-diagram-type="DESCRIPTION" height="226px" preserveAspectRatio="none" style="width:498px;height:226px;background:#FFFFFF;" version="1.1" viewBox="0 0 498 226" width="498px" zoomAndPan="magnify"><defs/><g><!--entity user--><g class="entity" data-entity="user" data-source-line="2" data-uid="ent0002" id="entity_user"><ellipse cx="388.7428" cy="16.279" fill="#F1F1F1" rx="8" ry="8" style="stroke:#181818;stroke-width:0.5;"/><path d="M388.7428,24.279 L388.7428,51.279 M375.7428,32.279 L401.7428,32.279 M388.7428,51.279 L375.7428,66.279 M388.7428,51.279 L401.7428,66.279" fill="none" style="stroke:#181818;stroke-width:0.5;"/><text fill="#000000" font-family="sans-serif" font-size="14" lengthAdjust="spacing" textLength="95.3256" x="341.08" y="82.7449">&#1055;&#1086;&#1083;&#1100;&#1079;&#1086;&#1074;&#1072;&#1090;&#1077;&#1083;&#1100;</text></g><!--entity tg--><g class="entity" data-entity="tg" data-source-line="3" data-uid="ent0003" id="entity_tg"><path d="M26.7403,31.3538 C30.888,25.518 35.2713,23.8473 39.9381,30.8189 C43.5064,24.9489 48.9126,25.5558 52.4051,30.9031 C55.4844,25.7767 60.5285,24.3331 64.0977,30.391 C67.2873,25.8239 71.7352,25.3076 75.067,30.2265 C79.4915,23.2301 85.8228,23.6934 88.9285,31.4645 C93.1231,25.3861 97.906,26.4499 100.7871,32.7252 C108.7553,34.7987 112.1391,40.5026 105.6447,47.3724 C112.8526,54.0934 111.7286,63.0911 101.0656,65.2296 C98.2731,72.1815 93.5453,72.0477 89.0202,66.9635 C87.115,74.4443 80.381,75.5398 75.6064,69.8962 C72.3702,76.5898 67.9436,76.6157 62.9012,71.9091 C58.6319,76.1567 53.8639,75.7061 52.4005,69.1755 C46.9177,74.8899 42.5628,73.0132 39.6282,66.5114 C35.0205,72.8435 30.6775,71.4472 26.6593,65.8695 C17.5618,62.5015 16.2579,54.823 24.1367,48.9273 C16.2107,42.7437 17.9318,35.0581 26.7403,31.3538" fill="#F1F1F1" style="stroke:#181818;stroke-width:0.5;"/><text fill="#000000" font-family="sans-serif" font-size="14" lengthAdjust="spacing" textLength="59.7938" x="32.84" y="52.7449">telegram</text></g><!--entity api--><g class="entity" data-entity="api" data-source-line="4" data-uid="ent0004" id="entity_api"><path d="M389.2492,175.5739 C391.9809,169.3757 395.1714,168.9857 399.7185,173.8569 C403.4946,168.4969 407.8874,169.0347 411.5448,173.9929 C415.0855,168.4903 418.4316,168.4952 422.2332,173.7333 C425.0138,168.8797 430.4356,167.9534 433.5698,173.3419 C436.7543,169.2725 441.0005,170.0429 443.0138,174.621 C445.8239,168.4961 449.8389,167.3576 454.3007,173.0424 C457.9174,167.2241 463.3488,167.8665 465.9485,174.0309 C468.8441,168.8125 473.9504,168.9122 476.4005,174.4633 C487.9438,175.0507 490.9809,181.1615 486.5534,191.3507 C491.3061,201.7821 488.6144,208.1071 476.2587,207.8889 C473.8833,213.246 468.6963,214.6423 464.9906,209.2885 C462.9242,214.4592 458.0239,213.9899 455.1446,210.1797 C453.0642,216.6308 449.2709,216.4825 444.755,212.6372 C440.3395,218.8429 436.0629,219.0974 432.0876,212.2113 C429.1617,216.3802 424.9371,216.4948 422.2358,211.9572 C418.5945,216.9176 413.9606,216.5149 411.433,210.8273 C406.9448,215.4551 402.9715,215.526 400.394,208.9455 C396.6752,215.3282 392.1843,215.1872 388.3366,209.07 C376.1225,207.3418 375.3542,199.6254 380.7833,190.6589 C374.785,182.2187 379.4663,175.1576 389.2492,175.5739" fill="#F1F1F1" style="stroke:#181818;stroke-width:0.5;"/><text fill="#000000" font-family="sans-serif" font-size="14" lengthAdjust="spacing" textLength="74.0457" x="394.71" y="195.8149">nekosia.cat</text></g><!--entity app--><g class="entity" data-entity="app" data-source-line="6" data-uid="ent0005" id="entity_app"><rect fill="#F1F1F1" height="39.0679" rx="2.5" ry="2.5" style="stroke:#181818;stroke-width:0.5;" width="111.4756" x="7" y="170.849"/><text fill="#000000" font-family="sans-serif" font-size="14" lengthAdjust="spacing" textLength="91.4756" x="17" y="195.8149">kawaii-keeper</text></g><!--link tg to user--><g class="link" data-entity-1="tg" data-entity-2="user" data-source-line="8" data-uid="lnk6" id="link_tg_user"><path d="M107.8,64.739 C114.27,66.629 120.92,68.249 127.35,69.309 C169.89,76.359 278.78,76.089 321.35,69.309 C327.67,68.309 328.4248,68.3899 334.8248,66.6299" fill="none" id="tg-to-user" style="stroke:#181818;stroke-width:1;"/><polygon fill="#181818" points="340.61,65.039,330.8715,63.5686,335.789,66.3648,332.9928,71.2822,340.61,65.039" style="stroke:#181818;stroke-width:1;"/><text fill="#000000" font-family="sans-serif" font-size="13" lengthAdjust="spacing" textLength="192.9852" x="128.35" y="65.206">&#1055;&#1086;&#1082;&#1072;&#1079;&#1072;&#1090;&#1100; &#1086;&#1095;&#1077;&#1088;&#1077;&#1076;&#1085;&#1091;&#1102; &#1082;&#1072;&#1088;&#1090;&#1080;&#1085;&#1082;&#1091;</text></g><!--link user to tg--><g class="link" data-entity-1="user" data-entity-2="tg" data-source-line="9" data-uid="lnk7" id="link_user_tg"><path d="M340.61,47.309 C277.97,47.309 175.3,47.309 114.07,47.309" fill="none" id="user-to-tg" style="stroke:#181818;stroke-width:1;"/><polygon fill="#181818" points="108.07,47.309,117.07,51.309,113.07,47.309,117.07,43.309,108.07,47.309" style="stroke:#181818;stroke-width:1;"/><text fill="#000000" font-family="sans-serif" font-size="13" lengthAdjust="spacing" textLength="80.1061" x="184.714" y="22.206">&#1042;&#1099;&#1073;&#1088;&#1072;&#1090;&#1100; &#1090;&#1077;&#1075;,</text><text fill="#000000" font-family="sans-serif" font-size="13" lengthAdjust="spacing" textLength="197.8341" x="125.85" y="39.912">&#1054;&#1076;&#1086;&#1073;&#1088;&#1080;&#1090;&#1100;/&#1086;&#1090;&#1074;&#1077;&#1088;&#1075;&#1085;&#1091;&#1090;&#1100; &#1082;&#1072;&#1088;&#1090;&#1080;&#1085;&#1082;&#1091;</text></g><!--link tg to app--><g class="link" data-entity-1="tg" data-entity-2="app" data-source-line="12" data-uid="lnk8" id="link_tg_app"><path d="M62.74,72.249 C62.74,100.069 62.74,145.419 62.74,170.749" fill="none" id="tg-app" style="stroke:#181818;stroke-width:1;"/><text fill="#000000" font-family="sans-serif" font-size="13" lengthAdjust="spacing" textLength="144.0661" x="63.74" y="131.746">&#1048;&#1085;&#1090;&#1077;&#1075;&#1088;&#1072;&#1094;&#1080;&#1103; &#1089; telegram</text></g><!--link app to api--><g class="link" data-entity-1="app" data-entity-2="api" data-source-line="14" data-uid="lnk9" id="link_app_api"><path d="M118.95,204.069 C135.48,207.489 153.67,210.669 170.6,212.379 C240.02,219.389 258.2,219.629 327.6,212.379 C344.6,210.609 357.0465,208.5115 373.4965,204.9415" fill="none" id="app-to-api" style="stroke:#181818;stroke-width:1;"/><polygon fill="#181818" points="379.36,203.669,369.7164,201.6688,374.4737,204.7294,371.4131,209.4868,379.36,203.669" style="stroke:#181818;stroke-width:1;"/><text fill="#000000" font-family="sans-serif" font-size="13" lengthAdjust="spacing" textLength="155.0121" x="171.6" y="208.276">&#1047;&#1072;&#1087;&#1088;&#1086;&#1089; &#1082;&#1072;&#1088;&#1090;&#1080;&#1085;&#1082;&#1080; &#1087;&#1086; &#1090;&#1077;&#1075;&#1091;</text></g><!--link api to app--><g class="link" data-entity-1="api" data-entity-2="app" data-source-line="15" data-uid="lnk10" id="link_api_app"><path d="M379.36,190.379 C310.37,190.379 195.55,190.379 124.78,190.379" fill="none" id="api-to-app" style="stroke:#181818;stroke-width:1;"/><polygon fill="#181818" points="118.78,190.379,127.78,194.379,123.78,190.379,127.78,186.379,118.78,190.379" style="stroke:#181818;stroke-width:1;"/><text fill="#000000" font-family="sans-serif" font-size="13" lengthAdjust="spacing" textLength="225.7712" x="136.6" y="183.276">&#1057;&#1089;&#1099;&#1083;&#1082;&#1072; &#1085;&#1072; &#1080;&#1085;&#1090;&#1077;&#1088;&#1077;&#1089;&#1091;&#1102;&#1097;&#1091;&#1102; &#1082;&#1072;&#1088;&#1090;&#1080;&#1085;&#1082;&#1091;</text></g><!--SRC=[RP3FIiD04CRl-nH3pqRl7dmIBqjSGaXCmcQBr_w1YYWANlIa-0RLMWmjJLzXvetyPbC4nKkMp7pp-xuPcuRQ4xzoprkvuo-y7xoK6Q_rdsnBuzPvavRr-8A2ArtcxQMMGtOeLgweszmUfpPetJQvCTwbmLPPwMXKs2kRvqdXNEFyQ50qneICahF8fjF1ViDBsCCQjjpBDQzbWXIVl9Evt9FsPO9W7Uzu8tCJPy504aKyoYs_Os80n0LMH-SLlu3GnqwddHEWPrXHuQk8Zdv_uKF0HBCg_1dAI8m62w0UIAO_zp16TSY2vI4dVi8kUsXxY7wpkIFUSty822STYPDDd7oJAHRPwX11ZqytUEinqCCfvER_Wtm3]--></g></svg>