<svg xmlns="http://www.w3.org/2000/svg" xmlns:xlink="http://www.w3.org/1999/xlink" contentStyleType="text/css" data-diagram-type="DESCRIPTION" height="532px" preserveAspectRatio="none" style="width:492px;height:532px;background:#FFFFFF;" version="1.1" viewBox="0 0 492 532" width="492px" zoomAndPan="magnify"><defs/><g><!--cluster app--><g class="cluster" data-entity="app" data-source-line="6" data-uid="ent0005" id="cluster_app"><rect fill="none" height="249.2" rx="2.5" ry="2.5" style="stroke:#181818;stroke-width:1;" width="144" x="160.4642" y="277.64"/><path d="M267.6274,277.64 L267.6274,289.7079 L257.6274,299.7079 L160.4642,299.7079" fill="none" style="stroke:#181818;stroke-width:1;"/><text fill="#000000" font-family="sans-serif" font-size="14" font-weight="bold" lengthAdjust="spacing" textLength="97.1631" x="163.4642" y="293.6059">kawaii-keeper</text></g><!--entity back--><g class="entity" data-entity="back" data-source-line="7" data-uid="ent0006" id="entity_back"><rect fill="#F1F1F1" height="68.1358" rx="2.5" ry="2.5" style="stroke:#181818;stroke-width:0.5;" width="112.6597" x="176.1342" y="315.64"/><rect fill="#F1F1F1" height="10" style="stroke:#181818;stroke-width:0.5;" width="15" x="268.794" y="320.64"/><rect fill="#F1F1F1" height="2" style="stroke:#181818;stroke-width:0.5;" width="4" x="266.794" y="322.64"/><rect fill="#F1F1F1" height="2" style="stroke:#181818;stroke-width:0.5;" width="4" x="266.794" y="326.64"/><text fill="#000000" font-family="sans-serif" font-size="14" lengthAdjust="spacing" textLength="42.9518" x="191.1342" y="350.6059">Spring</text><text fill="#000000" font-family="sans-serif" font-size="14" lengthAdjust="spacing" textLength="72.6597" x="191.1342" y="369.6739">application</text></g><!--entity postgres--><g class="entity" data-entity="postgres" data-source-line="8" data-uid="ent0007" id="entity_postgres"><path d="M193.5542,472.77 C193.5542,462.77 232.4711,462.77 232.4711,462.77 C232.4711,462.77 271.388,462.77 271.388,472.77 L271.388,500.8379 C271.388,510.8379 232.4711,510.8379 232.4711,510.8379 C232.4711,510.8379 193.5542,510.8379 193.5542,500.8379 L193.5542,472.77" fill="#F1F1F1" style="stroke:#181818;stroke-width:0.5;"/><path d="M193.5542,472.77 C193.5542,482.77 232.4711,482.77 232.4711,482.77 C232.4711,482.77 271.388,482.77 271.388,472.77" fill="none" style="stroke:#181818;stroke-width:0.5;"/><text fill="#000000" font-family="sans-serif" font-size="14" lengthAdjust="spacing" textLength="57.8338" x="203.5542" y="501.7359">postgres</text></g><!--entity user--><g class="entity" data-entity="user" data-source-line="2" data-uid="ent0002" id="entity_user"><ellipse cx="166.4671" cy="14" fill="#F1F1F1" rx="8" ry="8" style="stroke:#181818;stroke-width:0.5;"/><path d="M166.4671,22 L166.4671,49 M153.4671,30 L179.4671,30 M166.4671,49 L153.4671,64 M166.4671,49 L179.4671,64" fill="none" style="stroke:#181818;stroke-width:0.5;"/><text fill="#000000" font-family="sans-serif" font-size="14" lengthAdjust="spacing" textLength="95.3256" x="118.8042" y="80.4659">&#1055;&#1086;&#1083;&#1100;&#1079;&#1086;&#1074;&#1072;&#1090;&#1077;&#1083;&#1100;</text></g><!--entity tg--><g class="entity" data-entity="tg" data-source-line="3" data-uid="ent0003" id="entity_tg"><path d="M130.4746,172.1448 C134.6223,166.309 139.0056,164.6383 143.6723,171.6099 C147.2406,165.7399 152.6468,166.3468 156.1393,171.6941 C159.2186,166.5677 164.2627,165.1241 167.8319,171.1819 C171.0216,166.6149 175.4694,166.0986 178.8012,171.0175 C183.2258,164.0211 189.5571,164.4844 192.6627,172.2555 C196.8573,166.1771 201.6402,167.2409 204.5214,173.5162 C212.4895,175.5897 215.8733,181.2936 209.3789,188.1634 C216.5868,194.8844 215.4628,203.8821 204.7999,206.0206 C202.0074,212.9725 197.2795,212.8387 192.7545,207.7545 C190.8492,215.2353 184.1153,216.3308 179.3406,210.6872 C176.1044,217.3808 171.6778,217.4067 166.6354,212.7001 C162.3661,216.9477 157.5982,216.4971 156.1347,209.9665 C150.652,215.6809 146.2971,213.8042 143.3625,207.3024 C138.7547,213.6345 134.4118,212.2382 130.3935,206.6605 C121.296,203.2925 119.9922,195.614 127.8709,189.7183 C119.9449,183.5347 121.6661,175.8491 130.4746,172.1448" fill="#F1F1F1" style="stroke:#181818;stroke-width:0.5;"/><text fill="#000000" font-family="sans-serif" font-size="14" lengthAdjust="spacing" textLength="59.7938" x="136.5742" y="193.5359">telegram</text></g><!--entity api--><g class="entity" data-entity="api" data-source-line="4" data-uid="ent0004" id="entity_api"><path d="M268.9835,173.2949 C271.7151,167.0967 274.9057,166.7067 279.4528,171.5779 C283.2288,166.2179 287.6216,166.7557 291.279,171.7139 C294.8198,166.2113 298.1658,166.2162 301.9674,171.4543 C304.748,166.6007 310.1698,165.6744 313.304,171.0629 C316.4886,166.9935 320.7347,167.7639 322.748,172.342 C325.5581,166.2171 329.5731,165.0786 334.0349,170.7634 C337.6516,164.9451 343.083,165.5875 345.6827,171.7519 C348.5784,166.5335 353.6846,166.6332 356.1348,172.1843 C367.678,172.7717 370.7151,178.8825 366.2876,189.0717 C371.0404,199.5031 368.3486,205.8281 355.9929,205.6099 C353.6176,210.9669 348.4306,212.3633 344.7248,207.0095 C342.6585,212.1802 337.7581,211.7109 334.8789,207.9007 C332.7984,214.3518 329.0051,214.2035 324.4892,210.3582 C320.0737,216.5639 315.7971,216.8184 311.8218,209.9323 C308.8959,214.1012 304.6713,214.2158 301.97,209.6782 C298.3287,214.6386 293.6948,214.2359 291.1673,208.5483 C286.679,213.1761 282.7058,213.247 280.1282,206.6665 C276.4095,213.0492 271.9186,212.9082 268.0708,206.791 C255.8567,205.0628 255.0884,197.3464 260.5176,188.3799 C254.5193,179.9397 259.2005,172.8786 268.9835,173.2949" fill="#F1F1F1" style="stroke:#181818;stroke-width:0.5;"/><text fill="#000000" font-family="sans-serif" font-size="14" lengthAdjust="spacing" textLength="74.0457" x="274.4442" y="193.5359">nekosia.cat</text></g><!--link tg to user--><g class="link" data-entity-1="tg" data-entity-2="user" data-source-line="11" data-uid="lnk8" id="link_tg_user"><path d="M171.8942,163.25 C173.7442,154.03 175.5642,143.36 176.4642,133.57 C177.9442,117.58 177.3899,105.9187 175.1999,90.7187" fill="none" id="tg-to-user" style="stroke:#181818;stroke-width:1;"/><polygon fill="#181818" points="174.3442,84.78,171.6686,94.2584,175.0573,89.7289,179.5868,93.1176,174.3442,84.78" style="stroke:#181818;stroke-width:1;"/><text fill="#000000" font-family="sans-serif" font-size="13" lengthAdjust="spacing" textLength="60.3331" x="110.8449" y="106.4225">&#1050;&#1072;&#1088;&#1090;&#1080;&#1085;&#1082;&#1080;</text></g><!--link user to tg--><g class="link" data-entity-1="user" data-entity-2="tg" data-source-line="12" data-uid="lnk9" id="link_user_tg"><path d="M135.6442,85 C127.4342,99.92 122.1642,117.27 127.4642,133.57 C130.9242,144.17 133.6938,149.6759 140.3538,158.3259" fill="none" id="user-to-tg" style="stroke:#181818;stroke-width:1;"/><polygon fill="#181818" points="144.0142,163.08,141.6931,153.5086,140.9639,159.1182,135.3542,158.3891,144.0142,163.08" style="stroke:#181818;stroke-width:1;"/><text fill="#000000" font-family="sans-serif" font-size="13" lengthAdjust="spacing" textLength="39.4421" x="128.4642" y="129.467">(https)</text><text fill="#000000" font-family="sans-serif" font-size="13" lengthAdjust="spacing" textLength="54.509" x="78.0212" y="151.8916">&#1047;&#1072;&#1087;&#1088;&#1086;&#1089;&#1099;</text></g><!--link tg to back--><g class="link" data-entity-1="tg" data-entity-2="back" data-source-line="15" data-uid="lnk10" id="link_tg_back"><path d="M146.3842,213.08 C137.0242,227.27 129.3442,245.56 136.4642,261.64 C145.8542,282.83 158.5873,297.2645 175.9973,311.4845" fill="none" id="tg-to-back" style="stroke:#181818;stroke-width:1;"/><polygon fill="#181818" points="180.6442,315.28,176.2041,306.4888,176.7718,312.1171,171.1435,312.6847,180.6442,315.28" style="stroke:#181818;stroke-width:1;"/><text fill="#000000" font-family="sans-serif" font-size="13" lengthAdjust="spacing" textLength="39.4421" x="137.4642" y="257.537">(https)</text><text fill="#000000" font-family="sans-serif" font-size="13" lengthAdjust="spacing" textLength="162.3181" x="6" y="308.1191">&#1047;&#1072;&#1087;&#1088;&#1086;&#1089;&#1099; &#1086;&#1090; &#1087;&#1086;&#1083;&#1100;&#1079;&#1086;&#1074;&#1072;&#1090;&#1077;&#1083;&#1103;</text></g><!--link back to tg--><g class="link" data-entity-1="back" data-entity-2="tg" data-source-line="16" data-uid="lnk11" id="link_back_tg"><path d="M218.6042,315.18 C205.9542,284.59 189.8573,245.6745 178.6373,218.5445" fill="none" id="back-to-tg" style="stroke:#181818;stroke-width:1;"/><polygon fill="#181818" points="176.3442,213,176.0874,222.8455,178.2551,217.6205,183.4801,219.7881,176.3442,213" style="stroke:#181818;stroke-width:1;"/><text fill="#000000" font-family="sans-serif" font-size="13" lengthAdjust="spacing" textLength="128.2841" x="35.8602" y="234.7015">&#1057;&#1089;&#1099;&#1083;&#1082;&#1080; &#1085;&#1072; &#1082;&#1072;&#1088;&#1090;&#1080;&#1085;&#1082;&#1080;</text></g><!--link back to api--><g class="link" data-entity-1="back" data-entity-2="api" data-source-line="18" data-uid="lnk12" id="link_back_api"><path d="M267.3142,315.36 C280.8942,300.28 295.1742,281.42 303.4642,261.64 C309.9342,246.21 311.7104,233.4083 312.0604,218.8083" fill="none" id="back-to-api" style="stroke:#181818;stroke-width:1;"/><polygon fill="#181818" points="312.2042,212.81,307.9897,221.7116,312.0844,217.8086,315.9874,221.9033,312.2042,212.81" style="stroke:#181818;stroke-width:1;"/><text fill="#000000" font-family="sans-serif" font-size="13" lengthAdjust="spacing" textLength="155.0121" x="330.298" y="234.4675">&#1047;&#1072;&#1087;&#1088;&#1086;&#1089; &#1082;&#1072;&#1088;&#1090;&#1080;&#1085;&#1082;&#1080; &#1087;&#1086; &#1090;&#1077;&#1075;&#1091;</text></g><!--link api to back--><g class="link" data-entity-1="api" data-entity-2="back" data-source-line="19" data-uid="lnk13" id="link_api_back"><path d="M279.3742,212.91 C270.0442,221.33 260.7042,231.5 254.4642,242.64 C241.9642,264.95 237.1858,287.5244 234.8358,309.3744" fill="none" id="api-to-back" style="stroke:#181818;stroke-width:1;"/><polygon fill="#181818" points="234.1942,315.34,239.1337,306.8193,234.7289,310.3687,231.1796,305.9639,234.1942,315.34" style="stroke:#181818;stroke-width:1;"/><text fill="#000000" font-family="sans-serif" font-size="13" lengthAdjust="spacing" textLength="39.4421" x="255.4642" y="257.537">(https)</text><text fill="#000000" font-family="sans-serif" font-size="13" lengthAdjust="spacing" textLength="225.7712" x="256.7592" y="303.8669">&#1057;&#1089;&#1099;&#1083;&#1082;&#1072; &#1085;&#1072; &#1080;&#1085;&#1090;&#1077;&#1088;&#1077;&#1089;&#1091;&#1102;&#1097;&#1091;&#1102; &#1082;&#1072;&#1088;&#1090;&#1080;&#1085;&#1082;&#1091;</text></g><!--link back to postgres--><g class="link" data-entity-1="back" data-entity-2="postgres" data-source-line="22" data-uid="lnk14" id="link_back_postgres"><path d="M216.3542,384.01 C211.0442,398.84 207.2442,416.57 210.4642,432.77 C212.4742,442.84 213.9868,447.9074 217.9968,456.9274" fill="none" id="back-to-postgres" style="stroke:#181818;stroke-width:1;"/><polygon fill="#181818" points="220.4342,462.41,220.4332,452.5611,218.4031,457.8412,213.1231,455.811,220.4342,462.41" style="stroke:#181818;stroke-width:1;"/><text fill="#000000" font-family="sans-serif" font-size="13" lengthAdjust="spacing" textLength="33.384" x="211.4642" y="428.667">(jdbc)</text><text fill="#000000" font-family="sans-serif" font-size="13" lengthAdjust="spacing" textLength="103.8701" x="107.7718" y="415.5229">&#1055;&#1086;&#1085;&#1088;&#1072;&#1074;&#1080;&#1074;&#1096;&#1080;&#1077;&#1089;&#1103;</text><text fill="#000000" font-family="sans-serif" font-size="13" lengthAdjust="spacing" textLength="90.1681" x="114.6228" y="433.2289">&#1087;&#1086;&#1083;&#1100;&#1079;&#1086;&#1074;&#1072;&#1090;&#1077;&#1083;&#1102;</text><text fill="#000000" font-family="sans-serif" font-size="13" lengthAdjust="spacing" textLength="59.1111" x="130.1513" y="450.9349">&#1082;&#1072;&#1088;&#1090;&#1080;&#1085;&#1082;&#1080;</text></g><!--link postgres to back--><g class="link" data-entity-1="postgres" data-entity-2="back" data-source-line="23" data-uid="lnk15" id="link_postgres_back"><path d="M241.6842,462.43 C244.8142,453.32 247.9142,442.71 249.4642,432.77 C251.9842,416.67 250.6421,404.7333 246.5421,389.8933" fill="none" id="postgres-to-back" style="stroke:#181818;stroke-width:1;"/><polygon fill="#181818" points="244.9442,384.11,243.4854,393.8502,246.2758,388.9294,251.1965,391.7198,244.9442,384.11" style="stroke:#181818;stroke-width:1;"/><text fill="#000000" font-family="sans-serif" font-size="13" lengthAdjust="spacing" textLength="85.9561" x="252.0498" y="405.8177">&#1057;&#1086;&#1093;&#1088;&#1072;&#1085;&#1105;&#1085;&#1085;&#1099;&#1077;</text><text fill="#000000" font-family="sans-serif" font-size="13" lengthAdjust="spacing" textLength="85.6181" x="252.2188" y="423.5237">&#1080;&#1079;&#1086;&#1073;&#1088;&#1072;&#1078;&#1077;&#1085;&#1080;&#1103;</text><text fill="#000000" font-family="sans-serif" font-size="13" lengthAdjust="spacing" textLength="55.0031" x="267.5263" y="441.2297">(&#1057;&#1089;&#1099;&#1083;&#1082;&#1080;)</text></g><!--SRC=[TL91JiCm4Bpx5IkVsaDv00S-mRKNDpN1f7MYn5KF2AcqGWA1Md52ueBuGIWgH5Hflx3-4MideBI5IB7ZtTcPsNL4OE8Ky0KtkBOF-4dx4dCxnPKxWyXWbCcK1ODur0SZ1p9CnT25JLW7jOpYJ8cZG1WN5ubYx8n04dWanaAfJYHb8bDUPHEuP41F40-JM4jjW9ycgT9XLrDoe8X6nTg3UoA8FBOlZEY9J48IPoPCPSQk63CXT3edmF6P_4x8SO4bVc71AyTkgG5FcEFMJd1Zh-qz9-Tm3ArpOvAipHeyEp2WRGgu_NCk2-wzDMZyiQ9vTUMuTbQ07EL0Nti6QNRDYeRm0TXR0A_xRcVSZvVU0wsyrg8o1oQs5ULcTcxltBh7wvZsEjXnv7w7aZXoQhh0fRsbrV4jklgVaSmfSz3dptKvcOj-BsYptqZjdtg-yJgbVQIgahfP4LFXsTzyveFuIooSTgivt7RL0Xbdtm00]--></g></svg>